<svg xmlns="http://www.w3.org/2000/svg" viewBox="0 0 1004.05 1396.2"><defs><style>.cls-1{font-size:249.47px;}.cls-1,.cls-2,.cls-4{fill:#1d1d1b;font-family:Lato-Black, Lato;font-weight:800;}.cls-2{font-size:245.45px;}.cls-3{fill:#010101;}.cls-4{font-size:132.39px;}.cls-5{letter-spacing:-0.02em;}.cls-6{fill:none;stroke:#1d1d1b;stroke-miterlimit:10;stroke-width:9px;}.cls-7{fill:#e02614;}.cls-8{fill:#dd2e14;}.cls-9{fill:#df5f11;}.cls-10{fill:#e88202;}.cls-11{fill:#98d1cd;}.cls-12{fill:#f18907;}.cls-13{fill:#e63a12;}.cls-14{fill:#e73e17;}.cls-15{fill:#ee7714;}.cls-16{fill:#f2da4c;}.cls-17{fill:#ec6319;}.cls-18{fill:#c8e1bc;}.cls-19{fill:#ffd207;}.cls-20{fill:#f7e938;}.cls-21{fill:#f59c1a;}.cls-22{fill:#f3921b;}.cls-23{fill:#cbdc85;}.cls-24{fill:#8dc9a2;}.cls-25{fill:#a0ce9b;}.cls-26{fill:#a0cd8e;}.cls-27{fill:#ffce05;}.cls-28{fill:#f0d03b;}.cls-29{fill:#f6e63a;}.cls-30{fill:#c6d873;}.cls-31{fill:#f9b216;}.cls-32{fill:#b6ba95;}.cls-33{fill:#c3b367;}.cls-34{fill:#d3bf52;}.cls-35{fill:#f3931a;}.cls-36{fill:#f59a15;}.cls-37{fill:#f6a119;}.cls-38{fill:#ee761b;}.cls-39{fill:#ec6613;}.cls-40{fill:#bd5125;}.cls-41{fill:#e0710d;}.cls-42{fill:#f18619;}.cls-43{fill:#ee751b;}.cls-44{fill:#c23117;}.cls-45{fill:#d54415;}.cls-46{fill:#ec6419;}.cls-47{fill:#ee731c;}.cls-48{fill:#ed6919;}.cls-49{fill:#e95116;}.cls-50{fill:#e84e0f;}.cls-51{fill:#de1f14;}.cls-52{fill:#e74310;}.cls-53{fill:#eb6013;}</style></defs><title>Fichier 3</title><g id="Calque_2" data-name="Calque 2"><g id="Calque_1-2" data-name="Calque 1"><text class="cls-1" transform="translate(454.55 1115.11) scale(1.17 1)">K</text><text class="cls-2" transform="translate(666.54 1117.66) scale(0.99 1)">D</text><path id="path1657" class="cls-3" d="M329.08,1114.57c-.43-.71.67-4.86,2.45-9.21,6.33-15.48,14.56-52,17.46-77.53,1.79-15.76.67-45.42-2.26-59.41-6.34-30.33-21.2-58-34.88-65.06-8.33-4.27-13.29-4.48-22.06-.94-14.1,5.7-20.05,10.29-38.05,29.35-18.9,20-27.81,36.17-34,61.66-3.61,14.9-4.78,17.79-6.47,16.08-1.4-1.42.12-10.14,4.74-27s10-31.05,20-52.64c8-17.19,12.66-29,23.54-59.76,6.64-18.78,32.21-68.12,52.55-101.42l6-9.85-11.53-6.08c-21.58-11.37-37.5-23.56-56.09-43-6.64-6.94-15.13-16.49-18.86-21.22-7.34-9.31-14.56-23.48-15.74-30.89-.86-5.41-1.54-4.66,13.85-15.11,22.25-15.1,51.07-26.21,84-32.37,31.85-6,53.36-14.78,90.79-37.2,17.29-10.35,28.7-19.23,37-28.81,7.07-8.12,32.14-30.51,45.71-40.84a216.53,216.53,0,0,1,58.46-30.75c4.82-1.6,20.85-4.83,36.23-7.3,28.81-4.63,38.55-6.94,51.68-12.22s19.82-9.16,30.56-17.7c20.43-16.21,58.59-43.72,65.87-47.48s25.55-17.09,36.21-26.45c6.73-5.91,13.73-10.92,18.55-13.28,8.77-4.29,20.89-6.65,25.31-4.94,5.2,2,14,23.59,14,34.32,0,3.56.81,4.86,6.12,9.91,7.09,6.73,9.54,11.61,11.34,22.59a49.76,49.76,0,0,1,0,17c-2.66,19.39-12.84,54.58-23.38,80.8-5.43,13.49-7.19,24.85-5.1,32.89,1.38,5.3,4,5.42,8.18.37,8.78-10.52,21.56-23.14,30-29.61l9.18-7.06,6.22,6.63c10.24,10.93,14.48,22.25,15.68,41.89a90.62,90.62,0,0,1-4.44,34.66c-5.29,15.79-12.33,27.48-38.34,63.64-34.56,48-39.69,56.37-49.61,80.59-17.2,42-23.45,83.2-20.22,133.39.55,8.65.5,13.1-.15,12.06-3.31-5.33-6.17-41.18-5.11-64.12.39-8.44,1.64-22.89,2.77-32.11,2.6-21.16,2.61-27.16,0-32-2.4-4.55-5.88-6-11.62-5-3.46.63-6,2.58-13.94,10.89-15,15.63-27.39,39.37-27.52,52.81,0,3.81-.73,6.32-2.25,8.22l-2.2,2.75.69-6c2.11-18.44,8.2-37.58,15.77-49.5,15-23.66,31.93-40.57,61.85-61.82,18-12.76,34.86-32.87,45.26-53.86,15.41-31.1,19.5-70.92,8.94-87.05-3.22-4.92-9.55-9.14-13.54-9-6.77.21-15.61,5-28.61,15.51-7.23,5.85-24.46,19.65-38.28,30.67s-25.92,21.24-26.86,22.71-3.57,7.48-5.82,13.37c-3.88,10.14-4.15,10.54-5,7.43-1.58-5.65-.71-24.66,1.66-36.38,4.45-22,13.43-42.78,24.63-57,18.9-23.88,29.44-41,33.4-54.16,4.31-14.33,9.49-27.54,17.66-45,15.33-32.8,15.7-54.09,1.08-60.91-4.8-2.24-5.08-2.93-2.81-7,2.72-4.83,1.62-13.12-2.07-15.6-2.2-1.49-6-.85-8.22,1.36-3.1,3.15-2.71,7.28,1,11.08,1.91,1.94,3,3.9,2.57,4.9s-4.09,3.46-8.33,5.64c-12.95,6.7-22.36,5.33-24-3.48a14.76,14.76,0,0,1,1-7.54c1.59-3.85,1.57-4-.37-2.92-3,1.62-8.33,8.56-10.92,14.15-1.24,2.68-3.86,13.3-5.83,23.61-5,26.34-5.6,28.36-11.5,40.81a190.92,190.92,0,0,1-24.15,37.8c-9.45,11.59-16.11,21.73-21.53,32.72-9.06,18.41-12.4,32.06-12.42,50.85,0,10.79-1.15,11.58-3.82,2.63-2.6-8.74-3.23-25.1-1.32-34.2,2.21-10.5,13.4-42.11,23-65,9.35-22.27,10.55-26.58,9.9-35.55-.44-6.06-.88-7.09-4.45-10.4-5.05-4.68-8.69-4.73-17.38-.26-13.51,7-26.83,19.57-32.93,31.16a86.58,86.58,0,0,1-5.57,9.32l-2.11,2.75,0-6.17c0-8.31-.9-8.88-11.41-7.52a115.1,115.1,0,0,0-30.55,7.94c-7.07,2.95-8.35,4-12.7,10.16-2.66,3.79-4.84,7.9-4.83,9.13s1.3,3.8,2.88,5.71c4,4.77,2.18,5.72-8.82,4.67-14.78-1.42-17.77-1-26.28,3.53-9.26,4.94-14,10-19.1,20.27a76.45,76.45,0,0,0-8.52,35.44c0,5.89-.38,10.3-.87,9.81s-2.8-8.62-5.16-18.07S510,530.5,509,528.36c-2.1-4.48-11.7-13.43-15.44-14.4-3.89-1-9.65,1.23-18.59,7.19-9.81,6.55-18.12,15-31.9,32.51-17.47,22.18-24.36,39.69-24.58,62.5-.13,13.87,1.23,20.55,6.64,32.62,2.1,4.69,3.52,8.81,3.16,9.18-1.37,1.39-4-.81-9.14-7.67-13.77-18.39-24.62-26.83-41.95-32.64-6.71-2.25-9.6-2.53-25.42-2.49-20,.05-33.66,2.24-52,8.32-24.14,8-38.94,18.77-46,33.4-2.82,5.87-3.16,7.71-3.15,17,0,9.51.32,11.08,3.6,18.09,8.76,18.72,30.94,41.19,50.55,51.19,6.11,3.11,20.48,7.85,27.16,9,8.22,1.37,20.41-4.59,30.54-14.92l4.68-4.79-.41-9.94c-.35-8.2-.95-11-3.47-16A65.6,65.6,0,0,0,343.64,683c-6.38-4.6-8.08-5.29-14.31-5.84Q315.76,676,334,672.09c10.31-2.19,19.75-1.68,26.7,1.42,7.38,3.31,21.61,13.19,34.42,23.91,12.55,10.5,20.09,14.6,32.89,17.91,15.85,4.09,26.64,2.46,25.09-3.78-.33-1.31-.92-7.77-1.31-14.37-1.95-32.42,8.21-70.49,23.25-87.17l5.38-6-2.61,6.2c-15.75,37.27-16.35,79.4-1.59,111.28,7.83,16.9,12.92,22.27,21.14,22.26,9.22,0,15.65-6.72,20.28-21.16,2-6.13,2.2-10,2.38-38.6.3-50.29,2.68-64.46,17.16-102.38,5-13.19,11.36-30,14-37.34,5.64-15.41,7.28-18.89,11.43-24.26,3.69-4.77,5.51-5.71,28.58-14.83,10.14-4,20.22-8.73,22.48-10.55,3.58-2.87,9.06-5.31,11.95-5.31.5,0-3.38,3.38-8.64,7.52-10.89,8.56-15.67,13.22-19.53,19-2.08,3.14-4,4.46-8.25,5.75-18.49,5.58-31.36,19.77-39.35,43.4-8.28,24.48-15,61.64-13.79,75.79,1.39,15.87,7.88,28.67,17.7,35,6.33,4.06,10,4.07,15.77,0S589.43,657,594.14,650c7-10.46,26-46.1,27.66-52,1.25-4.35,1.58-8.82,1.2-16.59-.61-12.48-2.49-16.73-9-20.4-4.55-2.56-17.24-5.08-21.3-4.25-1.34.28-4.57.8-7.19,1.17-4.11.57-4.58.44-3.45-1,.73-.89,5.79-3.84,11.25-6.56,20.51-10.21,28.89-21.79,43-59.38l4.11-11,0,5.71a35.66,35.66,0,0,1-2.09,11.21,136.73,136.73,0,0,0-4.42,16.77c-2,10-2.19,13.11-1.43,28.25,1.56,30.82,1.18,56.52-1,66.69-5.27,25-15,44.84-33,67.62-17.16,21.69-34.13,50.36-40.44,68.29-7.76,22.09-9.9,50.52-5.09,67.68,3.31,11.81,11.64,28.79,26,53,12.91,21.78,17.29,31.15,24.85,53.23,4.57,13.35,4.91,15.1,5.31,28,.3,9.26,0,15.65-1,19.73l-1.47,6-.65-4.93c-.36-2.71-1.2-10.26-1.86-16.77-2.19-21.27-8.56-38.66-21.2-57.86-9.53-14.47-21.05-26.54-37.85-39.65-34.25-26.7-62.3-61.61-80.26-99.88-6.22-13.26-8-18.81-8-24.76a8,8,0,0,0-2-5.77c-1.9-1.74-2.52-1.52-11.63,4.33-11.84,7.6-36.4,19.82-50.16,25a234.34,234.34,0,0,1-23.25,6.89c-11.09,2.6-15.44,3.06-30,3.15-19.56.11-17.25-1.6-19.32,14.37-1.52,11.79-.75,31.73,1.69,43.29C325,833.07,327.93,841,338,862.33c17.48,37.2,28.23,65.32,32,83.82,2.69,13.08,3.25,36,1.21,49.64a356.45,356.45,0,0,1-31.41,101.66c-7.72,16.17-9.53,19.06-10.71,17.13Zm337.47-209c-4.3-6.63-11.23-22.26-14.92-33.63-10.26-31.67-15.35-76.71-11.9-105.43,1.7-14.15,2.9-17.46,2.92-8,0,7.21,2.61,17,4.51,17s5.5-5.58,9.59-14.52a160.33,160.33,0,0,1,22.72-35.39c15.45-18,23-28,26.46-35.14,2-4.2,4.77-8.6,6.05-9.78l2.34-2.14-1.07,2.84c-2.57,6.87-10.15,21-15.88,29.47l-13,19.35c-22,32.86-33.3,81.39-28.4,122.06,1.39,11.55,5.65,29.18,9.28,38.44,4.7,12,5.51,21.46,1.27,14.92Z"/><text class="cls-4" transform="translate(112.46 1224.18) scale(0.79 1)"><tspan class="cls-5">K</tspan><tspan x="91.21" y="0">ongo Dervilon</tspan></text><path class="cls-6" d="M227.57,1371.82C103.12,1367.09,4.5,1257.53,4.5,1124V77c133.42-92.64,174.71,29,143.36-4-193.68-204.34,520.86,114,792.57,114L999,1112c9.81,155-107.63,285.09-252.43,279.59"/><path class="cls-6" d="M720.35,1342.79,249.75,1325c-112.86-4.27-202.29-103-202.29-223.42V157.74c121-83.51,207.7,29.82,179.27,0-175.63-184.21,423,99.12,669.43,99.12l53.1,833.89C958.15,1230.5,851.66,1347.75,720.35,1342.79Z"/><path class="cls-7" d="M336.29,186.84c-1.56-.5-1.72-5.19-1.31-6.45,1.72-5.38-3.14-.47-7.44,5.94-4.59,6.84-14.62,16.92-26.88,27.56l.45,18.08Z"/><path class="cls-8" d="M325.34,230.82a2.89,2.89,0,0,0,1.06-1.67c0-1.35-1-3,.25-4.18a8.8,8.8,0,0,0,2.2-5.44c0-1.85,1.94-4.45,4.49-6,3-1.83,7.27-5.29,7-7.42-.24-1.78-2.06-3.6-.44-5.78,2.09-2.82,2.4-4.19,1.1-4.73-1-.42-.66-7.29-.66-9.23s-2.4,1-4,.5h0L301.11,232Z"/><path class="cls-9" d="M314,240a32.73,32.73,0,0,1,6.51-5.8,25.42,25.42,0,0,0,4.87-3.42L301.11,232Z"/><path class="cls-10" d="M303.23,253.3c2.29-2.85,4.75-6,7.33-9.27,1.05-1.35,2.22-2.72,3.4-4L301.11,232Z"/><path class="cls-11" d="M266.3,365.33a4.52,4.52,0,0,0,3.62-3.84l-3.75,3.06Z"/><path class="cls-12" d="M286.25,267.13l3.75,1.61c2.71-2.74,7.42-8.23,13.23-15.44L301.11,232Z"/><path class="cls-13" d="M285.54,226.41l-4,3.15.91,8.94Z"/><path class="cls-14" d="M301.11,232l-.45-18.08c-4.77,4.14-9.87,8.36-15.12,12.52l-3.12,12.09Z"/><polygon class="cls-15" points="282.42 238.5 286.25 267.13 301.11 231.97 282.42 238.5"/><path class="cls-16" d="M286.52,273.79c.65-.2,1.11-.49,1.11-.89,0-1-.77-2.23,0-2.23.32,0,1.15-.68,2.4-1.93l-3.75-1.61Z"/><path class="cls-17" d="M281.51,229.56q-3.74,2.88-7.51,5.68l8.42,3.26Z"/><path class="cls-18" d="M269.92,361.49a5.12,5.12,0,0,0-1.44-3.75,32.4,32.4,0,0,0-5.69-3.63l3.38,10.44Z"/><path class="cls-19" d="M262.09,294.93c.47-1.71,1.73-2.57,2.94-2s2.51-.25,3-1.74,1.8-2.28,2.94-1.75a1.64,1.64,0,0,0,1.12.14l1-1.56h0c0-1.31,1.67-4.25,3.67-6.52s3.65-4.85,3.65-5.72c0-.52.48-1,1.22-1.27l4.64-7.36-45.92-9.87-.55.32,9.72,50.13C253.1,305.46,261.44,297.24,262.09,294.93Z"/><path class="cls-20" d="M273.07,288l-1,1.56A1.46,1.46,0,0,0,273.07,288Z"/><path class="cls-20" d="M281.61,274.49a4.76,4.76,0,0,1,1.72-.3,12,12,0,0,0,3.19-.4l-.27-6.66Z"/><path class="cls-21" d="M282.42,238.5l-39.1,17.05-3,1.71,45.92,9.87Z"/><path class="cls-22" d="M274,235.24a321.31,321.31,0,0,1-28.12,18.82l-2.56,1.49,39.1-17.05Z"/><path class="cls-23" d="M266.17,364.55l-3.38-10.44c-3.21-1.77-7.41-3.93-11.77-6l-1.25-.6-1.25,14Z"/><path class="cls-24" d="M242.35,393.8c3.66,2.33,7.2,1,7.2-2.67a2.61,2.61,0,0,1,.14-.85l-7.33,1.37Z"/><path class="cls-25" d="M248.52,361.49l17.1,20c1.44-1.92.75-5.44-2.17-10l-3.77-5.92h4.53a8,8,0,0,0,2.09-.26l-.13-.78Z"/><path class="cls-26" d="M242.36,391.65l7.33-1.37a2.9,2.9,0,0,1,2.84-1.84,4.2,4.2,0,0,0,3.83-2.64c.47-1.46,2.66-2.63,4.94-2.63,2.08,0,3.53-.58,4.32-1.65l-17.1-20Z"/><path class="cls-27" d="M227.83,313l3.23-5.21,4.17,2.95c3.42,2.42,4.38,2.52,5.39.58s1.46-1.91,2.36-.16,1.5,1.63,2.76-.43c.88-1.45,1.94-2.56,2.34-2.47a2.46,2.46,0,0,0,1.42-.57l-9.72-50.13-.46.26L212.87,308Z"/><path class="cls-28" d="M201.73,359.54l46.79,1.95-15.41-23.12c-7-4.51-11.34-8.48-11.77-11.13-.14-.83.35-2.58,1.24-4.69L212.87,308Z"/><path class="cls-29" d="M222.58,322.55a47.9,47.9,0,0,1,3.38-6.5l1.87-3-15-5Z"/><path class="cls-29" d="M249.77,347.51a163.64,163.64,0,0,1-16.66-9.14l15.41,23.12Z"/><polygon class="cls-30" points="248.52 361.49 201.73 359.54 242.37 391.65 248.52 361.49"/><path class="cls-31" d="M212.87,308l26.45-50.15C219,269.42,211.23,272,206.58,267.2l-15.3,4.66Z"/><path class="cls-32" d="M227.8,403.2l-5.27,4.18C225.3,408,226.34,407.19,227.8,403.2Z"/><path class="cls-32" d="M232.26,400.14c3.2,3.83,7,1.76,7-3.79a20.26,20.26,0,0,1,.09-2.32L232,399.85Z"/><path class="cls-32" d="M240.77,392.91a11.53,11.53,0,0,1,1.55.88h0v-2.15Z"/><path class="cls-33" d="M193,389.42l4.57,16.48a6.67,6.67,0,0,0,1.32.12c2,0,3.65.89,3.65,2,0,1.26,1.59,1.6,4.34.94,2.39-.58,4.75-.28,5.23.66h0a3.27,3.27,0,0,0,6-.68c.46-1.45,2.16-2.05,4.35-1.55l.08,0,5.27-4.18c.06-.15.11-.3.17-.46,1.69-4.84,2.07-5.2,4.05-2.89l7.34-5.82c.15-1.18.52-1.47,1.41-1.12l1.59-1.26Z"/><polygon class="cls-34" points="242.37 391.65 201.73 359.54 193.02 389.42 242.37 391.65"/><path class="cls-35" d="M206.58,267.2a18.4,18.4,0,0,1-3.38-5.68,29.43,29.43,0,0,0-5.11-8.21l-6.81,18.55Z"/><path class="cls-36" d="M212.87,308l-42.26-.28c.08.18.15.36.22.55l6.36,10.56a24.24,24.24,0,0,0,1.88-2.45l4-5.86,1.77,6.43c1,3.53,1.38,7.9.91,9.71a13.36,13.36,0,0,1-1.94,3.15l17.92,29.74Z"/><path class="cls-37" d="M191.28,271.86,170.56,307.6a.37.37,0,0,1,.05.11l42.26.28Z"/><path class="cls-38" d="M198.09,253.31c-2-2.25-4.13-3.66-5.81-3.68-3.57,0-13.22,3.52-13.22,4.89,0,.69,1.49,2,3.3,3,2.42,1.27,3.17,2.92,2.8,6.13h0l6.12,8.22Z"/><path class="cls-39" d="M183.81,329.8A137.48,137.48,0,0,1,173.09,342c-8.47,8.65-11.07,12-11.36,15.11l40,2.45Z"/><path class="cls-39" d="M171.39,314.78c-.86,7,1.85,8.48,5.8,4l-6.36-10.56A14.67,14.67,0,0,1,171.39,314.78Z"/><path class="cls-40" d="M187,400a5.34,5.34,0,0,0,3.81-1c2.2-1.4,2.84-.93,3.59,2.65.55,2.59,1.47,3.85,3.24,4.23L193,389.42Z"/><path class="cls-41" d="M201.73,359.54l-40-2.45a6.65,6.65,0,0,0,0,1.41c.29,3,1.27,4.39,3,4.22,1.89-.17,2.57,1.08,2.57,4.73v.3L193,389.42Z"/><path class="cls-42" d="M157.73,276l12.35,30.65a6.13,6.13,0,0,1,.48.92l20.72-35.74Z"/><path class="cls-43" d="M191.28,271.86l-6.12-8.22c-1,8.91-5,10.84-12.52,6.14-3.15-2-8.1-3.9-14.68-5.74l-.23,12Z"/><path class="cls-44" d="M183.45,392.39c0,.34,0,.71,0,1.11,0,3.8,1.38,6.13,3.49,6.53L193,389.42Z"/><path class="cls-45" d="M167.31,367.75c.08,4.57,2,7.42,5.14,7.52.81,0,1.27,1.77,1,3.9-.76,6.53,2.36,11.5,6.44,10.28,2.87-.87,3.46-.56,3.54,2.94l9.57-3Z"/><path class="cls-46" d="M157.73,276l.23-12c-4.85-1.36-10.58-2.67-17.15-3.93l-6.31,11.33Z"/><path class="cls-47" d="M147.86,285.39c13.63,8.36,14.46,9.37,13.93,11.29-.33,1.17.58,2.13,2,2.13,2,0,2.23.47.86,2.11-2.56,3.07-2.16,4.72.91,3.76,1.83-.57,3.43.26,4.5,2L157.73,276Z"/><path class="cls-48" d="M134.5,271.44l-.66,5.41,3,1.86c4.37,2.64,8,4.84,11,6.68l9.87-9.36Z"/><path class="cls-49" d="M140.81,260.11l-4.08-.75-1.21-.22-1,12.3Z"/><path class="cls-50" d="M113.8,261.17c2.37,1.8,4.82,4.24,5.44,5.42.41.78,4,3.43,9.06,6.73l6.2-1.88L100.23,246.6A64.61,64.61,0,0,0,113.8,261.17Z"/><path class="cls-51" d="M93.9,230.67l2.58-.89C95.2,228,94,228.16,93.9,230.67Z"/><path class="cls-52" d="M135.52,259.14c-8-1.52-16.87-4-20.08-5.72-6.27-3.32-14.65-13.26-17.5-20.75a12.81,12.81,0,0,0-1.46-2.89l-2.58.89c0,.17,0,.34,0,.53,0,4,2.49,9.72,6.35,15.4l34.27,24.84Z"/><path class="cls-53" d="M128.3,273.32c1.71,1.12,3.58,2.31,5.54,3.53l.66-5.41Z"/></g></g></svg>